<svg width="318" height="101" viewBox="0 0 318 101" fill="none" xmlns="http://www.w3.org/2000/svg">
<path d="M90.1 84.14C90.1 84.36 90.08 84.65 90.04 85.01H77.14C77.32 86.41 77.93 87.54 78.97 88.4C80.03 89.24 81.34 89.66 82.9 89.66C84.8 89.66 86.33 89.02 87.49 87.74L89.08 89.6C88.36 90.44 87.46 91.08 86.38 91.52C85.32 91.96 84.13 92.18 82.81 92.18C81.13 92.18 79.64 91.84 78.34 91.16C77.04 90.46 76.03 89.49 75.31 88.25C74.61 87.01 74.26 85.61 74.26 84.05C74.26 82.51 74.6 81.12 75.28 79.88C75.98 78.64 76.93 77.68 78.13 77C79.35 76.3 80.72 75.95 82.24 75.95C83.76 75.95 85.11 76.3 86.29 77C87.49 77.68 88.42 78.64 89.08 79.88C89.76 81.12 90.1 82.54 90.1 84.14ZM82.24 78.38C80.86 78.38 79.7 78.8 78.76 79.64C77.84 80.48 77.3 81.58 77.14 82.94H87.34C87.18 81.6 86.63 80.51 85.69 79.67C84.77 78.81 83.62 78.38 82.24 78.38Z" fill="white"/>
<path d="M94.0991 69.74H96.9792V92H94.0991V69.74Z" fill="white"/>
<path d="M116.848 84.14C116.848 84.36 116.828 84.65 116.788 85.01H103.888C104.068 86.41 104.678 87.54 105.718 88.4C106.778 89.24 108.088 89.66 109.648 89.66C111.548 89.66 113.078 89.02 114.238 87.74L115.828 89.6C115.108 90.44 114.208 91.08 113.128 91.52C112.068 91.96 110.878 92.18 109.558 92.18C107.878 92.18 106.388 91.84 105.088 91.16C103.788 90.46 102.778 89.49 102.058 88.25C101.358 87.01 101.008 85.61 101.008 84.05C101.008 82.51 101.348 81.12 102.028 79.88C102.728 78.64 103.678 77.68 104.878 77C106.098 76.3 107.468 75.95 108.988 75.95C110.508 75.95 111.858 76.3 113.038 77C114.238 77.68 115.168 78.64 115.828 79.88C116.508 81.12 116.848 82.54 116.848 84.14ZM108.988 78.38C107.608 78.38 106.448 78.8 105.508 79.64C104.588 80.48 104.048 81.58 103.888 82.94H114.088C113.928 81.6 113.378 80.51 112.438 79.67C111.518 78.81 110.368 78.38 108.988 78.38Z" fill="white"/>
<path d="M127.777 92.18C126.157 92.18 124.707 91.83 123.427 91.13C122.167 90.43 121.177 89.47 120.457 88.25C119.737 87.01 119.377 85.61 119.377 84.05C119.377 82.49 119.737 81.1 120.457 79.88C121.177 78.64 122.167 77.68 123.427 77C124.707 76.3 126.157 75.95 127.777 75.95C129.217 75.95 130.497 76.24 131.617 76.82C132.757 77.4 133.637 78.24 134.257 79.34L132.067 80.75C131.567 79.99 130.947 79.42 130.207 79.04C129.467 78.66 128.647 78.47 127.747 78.47C126.707 78.47 125.767 78.7 124.927 79.16C124.107 79.62 123.457 80.28 122.977 81.14C122.517 81.98 122.287 82.95 122.287 84.05C122.287 85.17 122.517 86.16 122.977 87.02C123.457 87.86 124.107 88.51 124.927 88.97C125.767 89.43 126.707 89.66 127.747 89.66C128.647 89.66 129.467 89.47 130.207 89.09C130.947 88.71 131.567 88.14 132.067 87.38L134.257 88.76C133.637 89.86 132.757 90.71 131.617 91.31C130.497 91.89 129.217 92.18 127.777 92.18Z" fill="white"/>
<path d="M147.131 91.07C146.711 91.43 146.191 91.71 145.571 91.91C144.951 92.09 144.311 92.18 143.651 92.18C142.051 92.18 140.811 91.75 139.931 90.89C139.051 90.03 138.611 88.8 138.611 87.2V78.47H135.911V76.1H138.611V72.62H141.491V76.1H146.051V78.47H141.491V87.08C141.491 87.94 141.701 88.6 142.121 89.06C142.561 89.52 143.181 89.75 143.981 89.75C144.861 89.75 145.611 89.5 146.231 89L147.131 91.07Z" fill="white"/>
<path d="M164.455 84.14C164.455 84.36 164.435 84.65 164.395 85.01H151.495C151.675 86.41 152.285 87.54 153.325 88.4C154.385 89.24 155.695 89.66 157.255 89.66C159.155 89.66 160.685 89.02 161.845 87.74L163.435 89.6C162.715 90.44 161.815 91.08 160.735 91.52C159.675 91.96 158.485 92.18 157.165 92.18C155.485 92.18 153.995 91.84 152.695 91.16C151.395 90.46 150.385 89.49 149.665 88.25C148.965 87.01 148.615 85.61 148.615 84.05C148.615 82.51 148.955 81.12 149.635 79.88C150.335 78.64 151.285 77.68 152.485 77C153.705 76.3 155.075 75.95 156.595 75.95C158.115 75.95 159.465 76.3 160.645 77C161.845 77.68 162.775 78.64 163.435 79.88C164.115 81.12 164.455 82.54 164.455 84.14ZM156.595 78.38C155.215 78.38 154.055 78.8 153.115 79.64C152.195 80.48 151.655 81.58 151.495 82.94H161.695C161.535 81.6 160.985 80.51 160.045 79.67C159.125 78.81 157.975 78.38 156.595 78.38Z" fill="white"/>
<path d="M183.455 69.74V92H180.695V89.48C180.055 90.36 179.245 91.03 178.265 91.49C177.285 91.95 176.205 92.18 175.025 92.18C173.485 92.18 172.105 91.84 170.885 91.16C169.665 90.48 168.705 89.53 168.005 88.31C167.325 87.07 166.985 85.65 166.985 84.05C166.985 82.45 167.325 81.04 168.005 79.82C168.705 78.6 169.665 77.65 170.885 76.97C172.105 76.29 173.485 75.95 175.025 75.95C176.165 75.95 177.215 76.17 178.175 76.61C179.135 77.03 179.935 77.66 180.575 78.5V69.74H183.455ZM175.265 89.66C176.265 89.66 177.175 89.43 177.995 88.97C178.815 88.49 179.455 87.83 179.915 86.99C180.375 86.13 180.605 85.15 180.605 84.05C180.605 82.95 180.375 81.98 179.915 81.14C179.455 80.28 178.815 79.62 177.995 79.16C177.175 78.7 176.265 78.47 175.265 78.47C174.245 78.47 173.325 78.7 172.505 79.16C171.705 79.62 171.065 80.28 170.585 81.14C170.125 81.98 169.895 82.95 169.895 84.05C169.895 85.15 170.125 86.13 170.585 86.99C171.065 87.83 171.705 88.49 172.505 88.97C173.325 89.43 174.245 89.66 175.265 89.66Z" fill="white"/>
<path d="M205.57 71C208.29 71 210.43 71.65 211.99 72.95C213.55 74.25 214.33 76.04 214.33 78.32C214.33 80.6 213.55 82.39 211.99 83.69C210.43 84.99 208.29 85.64 205.57 85.64H200.38V92H197.38V71H205.57ZM205.48 83.03C207.38 83.03 208.83 82.63 209.83 81.83C210.83 81.01 211.33 79.84 211.33 78.32C211.33 76.8 210.83 75.64 209.83 74.84C208.83 74.02 207.38 73.61 205.48 73.61H200.38V83.03H205.48Z" fill="white"/>
<path d="M220.814 78.77C221.314 77.85 222.054 77.15 223.034 76.67C224.014 76.19 225.204 75.95 226.604 75.95V78.74C226.444 78.72 226.224 78.71 225.944 78.71C224.384 78.71 223.154 79.18 222.254 80.12C221.374 81.04 220.934 82.36 220.934 84.08V92H218.054V76.1H220.814V78.77Z" fill="white"/>
<path d="M236.817 92.18C235.237 92.18 233.817 91.83 232.557 91.13C231.297 90.43 230.307 89.47 229.587 88.25C228.887 87.01 228.537 85.61 228.537 84.05C228.537 82.49 228.887 81.1 229.587 79.88C230.307 78.64 231.297 77.68 232.557 77C233.817 76.3 235.237 75.95 236.817 75.95C238.397 75.95 239.807 76.3 241.047 77C242.307 77.68 243.287 78.64 243.987 79.88C244.707 81.1 245.067 82.49 245.067 84.05C245.067 85.61 244.707 87.01 243.987 88.25C243.287 89.47 242.307 90.43 241.047 91.13C239.807 91.83 238.397 92.18 236.817 92.18ZM236.817 89.66C237.837 89.66 238.747 89.43 239.547 88.97C240.367 88.49 241.007 87.83 241.467 86.99C241.927 86.13 242.157 85.15 242.157 84.05C242.157 82.95 241.927 81.98 241.467 81.14C241.007 80.28 240.367 79.62 239.547 79.16C238.747 78.7 237.837 78.47 236.817 78.47C235.797 78.47 234.877 78.7 234.057 79.16C233.257 79.62 232.617 80.28 232.137 81.14C231.677 81.98 231.447 82.95 231.447 84.05C231.447 85.15 231.677 86.13 232.137 86.99C232.617 87.83 233.257 88.49 234.057 88.97C234.877 89.43 235.797 89.66 236.817 89.66Z" fill="white"/>
<path d="M247.01 98C246.31 98 245.66 97.92 245.06 97.76C244.46 97.6 243.96 97.36 243.56 97.04L244.49 94.82C245.09 95.32 245.87 95.57 246.83 95.57C247.59 95.57 248.17 95.33 248.57 94.85C248.99 94.39 249.2 93.7 249.2 92.78V76.1H252.08V92.72C252.08 94.36 251.64 95.65 250.76 96.59C249.88 97.53 248.63 98 247.01 98ZM250.64 73.04C250.08 73.04 249.61 72.86 249.23 72.5C248.87 72.14 248.69 71.7 248.69 71.18C248.69 70.66 248.87 70.22 249.23 69.86C249.61 69.48 250.08 69.29 250.64 69.29C251.2 69.29 251.66 69.47 252.02 69.83C252.4 70.17 252.59 70.6 252.59 71.12C252.59 71.66 252.4 72.12 252.02 72.5C251.66 72.86 251.2 73.04 250.64 73.04Z" fill="white"/>
<path d="M271.946 84.14C271.946 84.36 271.926 84.65 271.886 85.01H258.986C259.166 86.41 259.776 87.54 260.816 88.4C261.876 89.24 263.186 89.66 264.746 89.66C266.646 89.66 268.176 89.02 269.336 87.74L270.926 89.6C270.206 90.44 269.306 91.08 268.226 91.52C267.166 91.96 265.976 92.18 264.656 92.18C262.976 92.18 261.486 91.84 260.186 91.16C258.886 90.46 257.876 89.49 257.156 88.25C256.456 87.01 256.106 85.61 256.106 84.05C256.106 82.51 256.446 81.12 257.126 79.88C257.826 78.64 258.776 77.68 259.976 77C261.196 76.3 262.566 75.95 264.086 75.95C265.606 75.95 266.956 76.3 268.136 77C269.336 77.68 270.266 78.64 270.926 79.88C271.606 81.12 271.946 82.54 271.946 84.14ZM264.086 78.38C262.706 78.38 261.546 78.8 260.606 79.64C259.686 80.48 259.146 81.58 258.986 82.94H269.186C269.026 81.6 268.476 80.51 267.536 79.67C266.616 78.81 265.466 78.38 264.086 78.38Z" fill="white"/>
<path d="M282.875 92.18C281.255 92.18 279.805 91.83 278.525 91.13C277.265 90.43 276.275 89.47 275.555 88.25C274.835 87.01 274.475 85.61 274.475 84.05C274.475 82.49 274.835 81.1 275.555 79.88C276.275 78.64 277.265 77.68 278.525 77C279.805 76.3 281.255 75.95 282.875 75.95C284.315 75.95 285.595 76.24 286.715 76.82C287.855 77.4 288.735 78.24 289.355 79.34L287.165 80.75C286.665 79.99 286.045 79.42 285.305 79.04C284.565 78.66 283.745 78.47 282.845 78.47C281.805 78.47 280.865 78.7 280.025 79.16C279.205 79.62 278.555 80.28 278.075 81.14C277.615 81.98 277.385 82.95 277.385 84.05C277.385 85.17 277.615 86.16 278.075 87.02C278.555 87.86 279.205 88.51 280.025 88.97C280.865 89.43 281.805 89.66 282.845 89.66C283.745 89.66 284.565 89.47 285.305 89.09C286.045 88.71 286.665 88.14 287.165 87.38L289.355 88.76C288.735 89.86 287.855 90.71 286.715 91.31C285.595 91.89 284.315 92.18 282.875 92.18Z" fill="white"/>
<path d="M302.229 91.07C301.809 91.43 301.289 91.71 300.669 91.91C300.049 92.09 299.409 92.18 298.749 92.18C297.149 92.18 295.909 91.75 295.029 90.89C294.149 90.03 293.709 88.8 293.709 87.2V78.47H291.009V76.1H293.709V72.62H296.589V76.1H301.149V78.47H296.589V87.08C296.589 87.94 296.799 88.6 297.219 89.06C297.659 89.52 298.279 89.75 299.079 89.75C299.959 89.75 300.709 89.5 301.329 89L302.229 91.07Z" fill="white"/>
<path d="M310.27 92.18C308.97 92.18 307.72 92.01 306.52 91.67C305.32 91.31 304.38 90.86 303.7 90.32L304.9 88.04C305.6 88.54 306.45 88.94 307.45 89.24C308.45 89.54 309.46 89.69 310.48 89.69C313 89.69 314.26 88.97 314.26 87.53C314.26 87.05 314.09 86.67 313.75 86.39C313.41 86.11 312.98 85.91 312.46 85.79C311.96 85.65 311.24 85.5 310.3 85.34C309.02 85.14 307.97 84.91 307.15 84.65C306.35 84.39 305.66 83.95 305.08 83.33C304.5 82.71 304.21 81.84 304.21 80.72C304.21 79.28 304.81 78.13 306.01 77.27C307.21 76.39 308.82 75.95 310.84 75.95C311.9 75.95 312.96 76.08 314.02 76.34C315.08 76.6 315.95 76.95 316.63 77.39L315.4 79.67C314.1 78.83 312.57 78.41 310.81 78.41C309.59 78.41 308.66 78.61 308.02 79.01C307.38 79.41 307.06 79.94 307.06 80.6C307.06 81.12 307.24 81.53 307.6 81.83C307.96 82.13 308.4 82.35 308.92 82.49C309.46 82.63 310.21 82.79 311.17 82.97C312.45 83.19 313.48 83.43 314.26 83.69C315.06 83.93 315.74 84.35 316.3 84.95C316.86 85.55 317.14 86.39 317.14 87.47C317.14 88.91 316.52 90.06 315.28 90.92C314.06 91.76 312.39 92.18 310.27 92.18Z" fill="white"/>
<g filter="url(#filter0_d_75_4)">
<path d="M34.2823 83.5376C39.0896 84.6003 38.2697 84.694 42.8726 84.6003C47.5207 84.4413 51.0877 82.5678 53.5736 78.9797C55.472 76.2398 56.138 73.4667 55.5718 70.6606C55.0709 67.8997 53.9073 65.2591 52.0811 62.7386C50.3001 60.153 47.6183 56.8467 44.0359 52.8198C39.7861 47.9444 36.5349 43.8573 34.2823 40.5587C32.075 37.1949 30.721 33.5051 30.2205 29.4893C29.7852 25.5187 31.0365 21.4132 33.9744 17.1728C36.3699 13.7152 39.4528 11.2166 43.223 9.67699C47.0384 8.07211 51.4255 7.73235 56.3844 8.65769C61.3434 9.58304 64.24 13.2858 69.8504 17.1728L60.9883 15.8763C56.7195 15 53.5736 15.125 50.9192 15.8763C46.3385 17.1728 43.7846 18.2731 41.2535 21.9264C39.3552 24.6663 38.6339 27.4494 39.0896 30.2755C39.6558 33.0816 40.8621 35.8001 42.7083 38.431C44.665 41.0418 47.4019 44.338 50.9192 48.3198C55.0837 53.0395 58.2696 57.0814 60.477 60.4452C62.7948 63.789 64.1714 67.4462 64.6067 71.4168C65.0871 75.3221 63.881 79.3624 60.9883 83.5376C58.5928 86.9951 55.4547 89.5038 51.5741 91.0634C47.8039 92.6031 43.4067 92.8876 38.3826 91.9171C33.4036 90.8813 27.2195 83.5376 23.7195 78.9797L34.2823 83.5376Z" fill="white"/>
</g>
<defs>
<filter id="filter0_d_75_4" x="19.7195" y="8.15009" width="54.1309" height="92.3299" filterUnits="userSpaceOnUse" color-interpolation-filters="sRGB">
<feFlood flood-opacity="0" result="BackgroundImageFix"/>
<feColorMatrix in="SourceAlpha" type="matrix" values="0 0 0 0 0 0 0 0 0 0 0 0 0 0 0 0 0 0 127 0" result="hardAlpha"/>
<feOffset dy="4"/>
<feGaussianBlur stdDeviation="2"/>
<feComposite in2="hardAlpha" operator="out"/>
<feColorMatrix type="matrix" values="0 0 0 0 0 0 0 0 0 0 0 0 0 0 0 0 0 0 0.25 0"/>
<feBlend mode="normal" in2="BackgroundImageFix" result="effect1_dropShadow_75_4"/>
<feBlend mode="normal" in="SourceGraphic" in2="effect1_dropShadow_75_4" result="shape"/>
</filter>
</defs>
</svg>
