<svg width="388" height="93" viewBox="0 0 388 93" fill="none" xmlns="http://www.w3.org/2000/svg">
<path d="M0 0C0 0 15.0017 7.87591 20.6274 16.8769C24.4739 23.0314 40.4188 50.7524 50.1192 67.6705V87.0101L46.1303 81.0094L23.0652 40.5047L0 0Z" fill="white"/>
<path d="M100 0C100 0 84.9983 7.87591 79.3726 16.8769C75.5261 23.0314 59.5812 50.7524 49.8808 67.6705V87.0101L53.8697 81.0094L76.9348 40.5047L100 0Z" fill="white"/>
<path d="M77.73 71.1H80.61V87H77.73V71.1ZM79.17 68.04C78.61 68.04 78.14 67.86 77.76 67.5C77.4 67.14 77.22 66.7 77.22 66.18C77.22 65.66 77.4 65.22 77.76 64.86C78.14 64.48 78.61 64.29 79.17 64.29C79.73 64.29 80.19 64.47 80.55 64.83C80.93 65.17 81.12 65.6 81.12 66.12C81.12 66.66 80.93 67.12 80.55 67.5C80.19 67.86 79.73 68.04 79.17 68.04Z" fill="white"/>
<path d="M94.5989 70.95C96.6189 70.95 98.2189 71.54 99.3989 72.72C100.599 73.88 101.199 75.59 101.199 77.85V87H98.3189V78.18C98.3189 76.64 97.9489 75.48 97.2089 74.7C96.4689 73.92 95.4089 73.53 94.0289 73.53C92.4689 73.53 91.2389 73.99 90.3389 74.91C89.4389 75.81 88.9889 77.11 88.9889 78.81V87H86.1089V71.1H88.8689V73.5C89.4489 72.68 90.2289 72.05 91.2089 71.61C92.2089 71.17 93.3389 70.95 94.5989 70.95Z" fill="white"/>
<path d="M113.547 87.18C111.927 87.18 110.477 86.83 109.197 86.13C107.937 85.43 106.947 84.47 106.227 83.25C105.507 82.01 105.147 80.61 105.147 79.05C105.147 77.49 105.507 76.1 106.227 74.88C106.947 73.64 107.937 72.68 109.197 72C110.477 71.3 111.927 70.95 113.547 70.95C114.987 70.95 116.267 71.24 117.387 71.82C118.527 72.4 119.407 73.24 120.027 74.34L117.837 75.75C117.337 74.99 116.717 74.42 115.977 74.04C115.237 73.66 114.417 73.47 113.517 73.47C112.477 73.47 111.537 73.7 110.697 74.16C109.877 74.62 109.227 75.28 108.747 76.14C108.287 76.98 108.057 77.95 108.057 79.05C108.057 80.17 108.287 81.16 108.747 82.02C109.227 82.86 109.877 83.51 110.697 83.97C111.537 84.43 112.477 84.66 113.517 84.66C114.417 84.66 115.237 84.47 115.977 84.09C116.717 83.71 117.337 83.14 117.837 82.38L120.027 83.76C119.407 84.86 118.527 85.71 117.387 86.31C116.267 86.89 114.987 87.18 113.547 87.18Z" fill="white"/>
<path d="M137.891 79.14C137.891 79.36 137.871 79.65 137.831 80.01H124.931C125.111 81.41 125.721 82.54 126.761 83.4C127.821 84.24 129.131 84.66 130.691 84.66C132.591 84.66 134.121 84.02 135.281 82.74L136.871 84.6C136.151 85.44 135.251 86.08 134.171 86.52C133.111 86.96 131.921 87.18 130.601 87.18C128.921 87.18 127.431 86.84 126.131 86.16C124.831 85.46 123.821 84.49 123.101 83.25C122.401 82.01 122.051 80.61 122.051 79.05C122.051 77.51 122.391 76.12 123.071 74.88C123.771 73.64 124.721 72.68 125.921 72C127.141 71.3 128.511 70.95 130.031 70.95C131.551 70.95 132.901 71.3 134.081 72C135.281 72.68 136.211 73.64 136.871 74.88C137.551 76.12 137.891 77.54 137.891 79.14ZM130.031 73.38C128.651 73.38 127.491 73.8 126.551 74.64C125.631 75.48 125.091 76.58 124.931 77.94H135.131C134.971 76.6 134.421 75.51 133.481 74.67C132.561 73.81 131.411 73.38 130.031 73.38Z" fill="white"/>
<path d="M150.38 70.95C152.4 70.95 154 71.54 155.18 72.72C156.38 73.88 156.98 75.59 156.98 77.85V87H154.1V78.18C154.1 76.64 153.73 75.48 152.99 74.7C152.25 73.92 151.19 73.53 149.81 73.53C148.25 73.53 147.02 73.99 146.12 74.91C145.22 75.81 144.77 77.11 144.77 78.81V87H141.89V71.1H144.65V73.5C145.23 72.68 146.01 72.05 146.99 71.61C147.99 71.17 149.12 70.95 150.38 70.95Z" fill="white"/>
<path d="M171.25 86.07C170.83 86.43 170.31 86.71 169.69 86.91C169.07 87.09 168.43 87.18 167.77 87.18C166.17 87.18 164.93 86.75 164.05 85.89C163.17 85.03 162.73 83.8 162.73 82.2V73.47H160.03V71.1H162.73V67.62H165.61V71.1H170.17V73.47H165.61V82.08C165.61 82.94 165.82 83.6 166.24 84.06C166.68 84.52 167.3 84.75 168.1 84.75C168.98 84.75 169.73 84.5 170.35 84L171.25 86.07Z" fill="white"/>
<path d="M197.339 76.11C198.559 76.45 199.519 77.07 200.219 77.97C200.919 78.85 201.269 79.97 201.269 81.33C201.269 83.15 200.579 84.55 199.199 85.53C197.839 86.51 195.849 87 193.229 87H183.209V66H192.629C195.029 66 196.879 66.48 198.179 67.44C199.499 68.4 200.159 69.73 200.159 71.43C200.159 72.53 199.899 73.48 199.379 74.28C198.879 75.08 198.199 75.69 197.339 76.11ZM186.209 68.43V75.15H192.359C193.899 75.15 195.079 74.87 195.899 74.31C196.739 73.73 197.159 72.89 197.159 71.79C197.159 70.69 196.739 69.86 195.899 69.3C195.079 68.72 193.899 68.43 192.359 68.43H186.209ZM193.109 84.57C194.809 84.57 196.089 84.29 196.949 83.73C197.809 83.17 198.239 82.29 198.239 81.09C198.239 78.75 196.529 77.58 193.109 77.58H186.209V84.57H193.109Z" fill="white"/>
<path d="M211.284 70.95C213.484 70.95 215.164 71.49 216.324 72.57C217.504 73.65 218.094 75.26 218.094 77.4V87H215.364V84.9C214.884 85.64 214.194 86.21 213.294 86.61C212.414 86.99 211.364 87.18 210.144 87.18C208.364 87.18 206.934 86.75 205.854 85.89C204.794 85.03 204.264 83.9 204.264 82.5C204.264 81.1 204.774 79.98 205.794 79.14C206.814 78.28 208.434 77.85 210.654 77.85H215.214V77.28C215.214 76.04 214.854 75.09 214.134 74.43C213.414 73.77 212.354 73.44 210.954 73.44C210.014 73.44 209.094 73.6 208.194 73.92C207.294 74.22 206.534 74.63 205.914 75.15L204.714 72.99C205.534 72.33 206.514 71.83 207.654 71.49C208.794 71.13 210.004 70.95 211.284 70.95ZM210.624 84.96C211.724 84.96 212.674 84.72 213.474 84.24C214.274 83.74 214.854 83.04 215.214 82.14V79.92H210.774C208.334 79.92 207.114 80.74 207.114 82.38C207.114 83.18 207.424 83.81 208.044 84.27C208.664 84.73 209.524 84.96 210.624 84.96Z" fill="white"/>
<path d="M226.183 73.77C226.683 72.85 227.423 72.15 228.403 71.67C229.383 71.19 230.573 70.95 231.973 70.95V73.74C231.813 73.72 231.593 73.71 231.313 73.71C229.753 73.71 228.523 74.18 227.623 75.12C226.743 76.04 226.303 77.36 226.303 79.08V87H223.423V71.1H226.183V73.77Z" fill="white"/>
<path d="M250.376 64.74V87H247.616V84.48C246.976 85.36 246.166 86.03 245.186 86.49C244.206 86.95 243.126 87.18 241.946 87.18C240.406 87.18 239.026 86.84 237.806 86.16C236.586 85.48 235.626 84.53 234.926 83.31C234.246 82.07 233.906 80.65 233.906 79.05C233.906 77.45 234.246 76.04 234.926 74.82C235.626 73.6 236.586 72.65 237.806 71.97C239.026 71.29 240.406 70.95 241.946 70.95C243.086 70.95 244.136 71.17 245.096 71.61C246.056 72.03 246.856 72.66 247.496 73.5V64.74H250.376ZM242.186 84.66C243.186 84.66 244.096 84.43 244.916 83.97C245.736 83.49 246.376 82.83 246.836 81.99C247.296 81.13 247.526 80.15 247.526 79.05C247.526 77.95 247.296 76.98 246.836 76.14C246.376 75.28 245.736 74.62 244.916 74.16C244.096 73.7 243.186 73.47 242.186 73.47C241.166 73.47 240.246 73.7 239.426 74.16C238.626 74.62 237.986 75.28 237.506 76.14C237.046 76.98 236.816 77.95 236.816 79.05C236.816 80.15 237.046 81.13 237.506 81.99C237.986 82.83 238.626 83.49 239.426 83.97C240.246 84.43 241.166 84.66 242.186 84.66Z" fill="white"/>
<path d="M270.196 79.14C270.196 79.36 270.176 79.65 270.136 80.01H257.236C257.416 81.41 258.026 82.54 259.066 83.4C260.126 84.24 261.436 84.66 262.996 84.66C264.896 84.66 266.426 84.02 267.586 82.74L269.176 84.6C268.456 85.44 267.556 86.08 266.476 86.52C265.416 86.96 264.226 87.18 262.906 87.18C261.226 87.18 259.736 86.84 258.436 86.16C257.136 85.46 256.126 84.49 255.406 83.25C254.706 82.01 254.356 80.61 254.356 79.05C254.356 77.51 254.696 76.12 255.376 74.88C256.076 73.64 257.026 72.68 258.226 72C259.446 71.3 260.816 70.95 262.336 70.95C263.856 70.95 265.206 71.3 266.386 72C267.586 72.68 268.516 73.64 269.176 74.88C269.856 76.12 270.196 77.54 270.196 79.14ZM262.336 73.38C260.956 73.38 259.796 73.8 258.856 74.64C257.936 75.48 257.396 76.58 257.236 77.94H267.436C267.276 76.6 266.726 75.51 265.786 74.67C264.866 73.81 263.716 73.38 262.336 73.38Z" fill="white"/>
<path d="M282.685 70.95C284.705 70.95 286.305 71.54 287.485 72.72C288.685 73.88 289.285 75.59 289.285 77.85V87H286.405V78.18C286.405 76.64 286.035 75.48 285.295 74.7C284.555 73.92 283.495 73.53 282.115 73.53C280.555 73.53 279.325 73.99 278.425 74.91C277.525 75.81 277.075 77.11 277.075 78.81V87H274.195V71.1H276.955V73.5C277.535 72.68 278.315 72.05 279.295 71.61C280.295 71.17 281.425 70.95 282.685 70.95Z" fill="white"/>
<path d="M303.105 70.95C305.125 70.95 306.725 71.54 307.905 72.72C309.105 73.88 309.705 75.59 309.705 77.85V87H306.825V78.18C306.825 76.64 306.455 75.48 305.715 74.7C304.975 73.92 303.915 73.53 302.535 73.53C300.975 73.53 299.745 73.99 298.845 74.91C297.945 75.81 297.495 77.11 297.495 78.81V87H294.615V64.74H297.495V73.35C298.095 72.59 298.875 72 299.835 71.58C300.815 71.16 301.905 70.95 303.105 70.95Z" fill="white"/>
<path d="M320.825 70.95C323.025 70.95 324.705 71.49 325.865 72.57C327.045 73.65 327.635 75.26 327.635 77.4V87H324.905V84.9C324.425 85.64 323.735 86.21 322.835 86.61C321.955 86.99 320.905 87.18 319.685 87.18C317.905 87.18 316.475 86.75 315.395 85.89C314.335 85.03 313.805 83.9 313.805 82.5C313.805 81.1 314.315 79.98 315.335 79.14C316.355 78.28 317.975 77.85 320.195 77.85H324.755V77.28C324.755 76.04 324.395 75.09 323.675 74.43C322.955 73.77 321.895 73.44 320.495 73.44C319.555 73.44 318.635 73.6 317.735 73.92C316.835 74.22 316.075 74.63 315.455 75.15L314.255 72.99C315.075 72.33 316.055 71.83 317.195 71.49C318.335 71.13 319.545 70.95 320.825 70.95ZM320.165 84.96C321.265 84.96 322.215 84.72 323.015 84.24C323.815 83.74 324.395 83.04 324.755 82.14V79.92H320.315C317.875 79.92 316.655 80.74 316.655 82.38C316.655 83.18 316.965 83.81 317.585 84.27C318.205 84.73 319.065 84.96 320.165 84.96Z" fill="white"/>
<path d="M348.262 71.1V84.84C348.262 87.62 347.572 89.67 346.192 90.99C344.812 92.33 342.752 93 340.012 93C338.512 93 337.082 92.79 335.722 92.37C334.362 91.97 333.262 91.39 332.422 90.63L333.802 88.41C334.542 89.05 335.452 89.55 336.532 89.91C337.632 90.29 338.762 90.48 339.922 90.48C341.782 90.48 343.152 90.04 344.032 89.16C344.932 88.28 345.382 86.94 345.382 85.14V83.88C344.702 84.7 343.862 85.32 342.862 85.74C341.882 86.14 340.812 86.34 339.652 86.34C338.132 86.34 336.752 86.02 335.512 85.38C334.292 84.72 333.332 83.81 332.632 82.65C331.932 81.47 331.582 80.13 331.582 78.63C331.582 77.13 331.932 75.8 332.632 74.64C333.332 73.46 334.292 72.55 335.512 71.91C336.752 71.27 338.132 70.95 339.652 70.95C340.852 70.95 341.962 71.17 342.982 71.61C344.022 72.05 344.872 72.7 345.532 73.56V71.1H348.262ZM339.982 83.82C341.022 83.82 341.952 83.6 342.772 83.16C343.612 82.72 344.262 82.11 344.722 81.33C345.202 80.53 345.442 79.63 345.442 78.63C345.442 77.09 344.932 75.85 343.912 74.91C342.892 73.95 341.582 73.47 339.982 73.47C338.362 73.47 337.042 73.95 336.022 74.91C335.002 75.85 334.492 77.09 334.492 78.63C334.492 79.63 334.722 80.53 335.182 81.33C335.662 82.11 336.312 82.72 337.132 83.16C337.972 83.6 338.922 83.82 339.982 83.82Z" fill="white"/>
<path d="M368.135 79.14C368.135 79.36 368.115 79.65 368.075 80.01H355.175C355.355 81.41 355.965 82.54 357.005 83.4C358.065 84.24 359.375 84.66 360.935 84.66C362.835 84.66 364.365 84.02 365.525 82.74L367.115 84.6C366.395 85.44 365.495 86.08 364.415 86.52C363.355 86.96 362.165 87.18 360.845 87.18C359.165 87.18 357.675 86.84 356.375 86.16C355.075 85.46 354.065 84.49 353.345 83.25C352.645 82.01 352.295 80.61 352.295 79.05C352.295 77.51 352.635 76.12 353.315 74.88C354.015 73.64 354.965 72.68 356.165 72C357.385 71.3 358.755 70.95 360.275 70.95C361.795 70.95 363.145 71.3 364.325 72C365.525 72.68 366.455 73.64 367.115 74.88C367.795 76.12 368.135 77.54 368.135 79.14ZM360.275 73.38C358.895 73.38 357.735 73.8 356.795 74.64C355.875 75.48 355.335 76.58 355.175 77.94H365.375C365.215 76.6 364.665 75.51 363.725 74.67C362.805 73.81 361.655 73.38 360.275 73.38Z" fill="white"/>
<path d="M380.624 70.95C382.644 70.95 384.244 71.54 385.424 72.72C386.624 73.88 387.224 75.59 387.224 77.85V87H384.344V78.18C384.344 76.64 383.974 75.48 383.234 74.7C382.494 73.92 381.434 73.53 380.054 73.53C378.494 73.53 377.264 73.99 376.364 74.91C375.464 75.81 375.014 77.11 375.014 78.81V87H372.134V71.1H374.894V73.5C375.474 72.68 376.254 72.05 377.234 71.61C378.234 71.17 379.364 70.95 380.624 70.95Z" fill="white"/>
</svg>
