<svg width="40" height="46" viewBox="0 0 40 46" fill="none" xmlns="http://www.w3.org/2000/svg">
<path d="M35.7143 2.85718H4.28571C1.91964 2.85718 0 4.77682 0 7.14289V38.5715C0 40.9375 1.91964 42.8572 4.28571 42.8572H35.7143C38.0804 42.8572 40 40.9375 40 38.5715V7.14289C40 4.77682 38.0804 2.85718 35.7143 2.85718ZM12.5357 28.5893H8.375C7.88393 28.5893 7.59821 28.1161 7.83929 27.6697L12.2411 19.9286C12.25 19.9286 12.25 19.9197 12.2411 19.9107L9.4375 15.0893C9.16964 14.5893 9.45536 14.1875 9.97321 14.1875H14.1339C14.5982 14.1875 14.9821 14.4465 15.2857 14.9643L18.1339 19.9018C18.0179 20.1072 16.5268 22.7322 13.6607 27.7768C13.3482 28.3304 12.9732 28.5893 12.5357 28.5893ZM32.1518 9.47325L22.9732 25.6072V25.625L28.8214 36.25C29.0714 36.7054 28.8304 37.1518 28.2857 37.1518H24.125C23.6339 37.1518 23.2589 36.8929 22.9732 36.375L17.0804 25.634C17.2857 25.2679 20.3661 19.8393 26.3125 9.35718C26.6071 8.83932 26.9732 8.58039 27.4286 8.58039H31.6161C32.125 8.57146 32.4018 9.00003 32.1518 9.47325Z" fill="white"/>
</svg>
